<svg xmlns="http://www.w3.org/2000/svg" preserveAspectRatio="xMinYMin meet" viewBox="0 0 2059 529.8" width="2059" height="530"><style>.st1{fill:#172f5a}.st2{fill:#57b0e6}</style><path d="M397.3 0c-36.6 0-71.4 14-100.6 40.4-25 22.7-44.5 53.3-56.9 89.3-28.2-10.7-57.4-16.2-85.3-16.2-26.9 0-51.7 5-73.7 15-23.2 10.5-42.1 25.9-56.1 45.8-11 15.6-18.4 33.4-22.1 52.7-3.5 18.4-3.5 37.9 0 58 5 28.3 17 57.2 34.8 83.6C56 395.9 79.9 420 108.5 440c29.1 20.3 63.7 37.7 102.7 51.6 31 11 64.8 20 100.6 26.6 60.9 11.2 105.9 11.6 107.8 11.7h7.1l4.5-5.5c1.2-1.4 29-35.7 58.7-88.7 17.5-31.2 31.9-62.4 42.9-92.9 13.9-38.3 22.4-75.5 25.3-110.6 2.8-34.5-.5-67.9-9.8-99.4-8.9-30.3-23.4-57.7-41.8-79.4-13.1-15.3-27.9-27.7-44.2-36.6C445.3 7.4 427 1.9 408.2.4c-3.6-.2-7.3-.4-10.9-.4z" fill="#fff"/><path d="M748.8 196.1c-22 0-39.2-6.6-51.6-19.9s-18.6-31.4-18.6-54.5c0-14.7 2.9-27.6 8.7-38.7 5.8-11.1 14.3-19.8 25.5-26.1 11.2-6.2 24.5-9.4 39.8-9.4 17.5 0 32.6 3.8 45.2 11.3l-8.7 19.9c-12-6.4-24-9.7-36-9.7-14.6 0-26.1 4.7-34.4 14.2-8.3 9.5-12.5 22.3-12.5 38.7s3.7 29 11.1 38.3 18.3 14.1 32.6 14.1c9.2 0 17.5-1.4 25-4.3v-33.5h-30.3l.2-21H800v69.7c-8.9 3.7-17.4 6.4-25.4 8.2-7.8 1.9-16.5 2.8-25.8 2.7zM818.9 70V47.9h25.9V70h-25.9zm0 124.1V85.8h25.8v108.3h-25.8zM893.9 194.1 850.7 85.7h27.4c1 3 4.4 12.1 10 27.6 5.6 15.4 9.3 25.9 11.2 31.5 3.8 10.9 6.4 19.2 8.1 24.8 0-.1.6-2.2 1.7-6.4s2.2-8.2 3.2-11.9c1-3.7 1.7-6 1.9-6.8.1-.1 3.1-9.2 9-27.2s9.5-28.5 10.6-31.5H961l-41 108.3h-26.1zM1015.8 196.1c-17.4 0-31-5-40.7-15-9.7-10-14.5-23.9-14.5-41.6s4.6-30.9 13.7-41.1 21.6-15.3 37.4-15.4c14.9 0 26.5 4.7 34.8 14s12.4 21.7 12.4 37.2c0 1.1 0 2.9-.1 5.4 0 2.5-.1 4.3-.1 5.5h-72.1c.3 10.1 3 18 8.3 23.5 5.3 5.6 12.6 8.3 21.8 8.3 11.8 0 23.2-3.1 34.1-9.3l3.7 18.3c-10.8 6.9-23.7 10.2-38.7 10.2zm-28.7-67.2h47.3c0-8.8-2-15.6-6-20.3-4-4.7-9.6-7.1-16.7-7.1-6.6 0-12.2 2.3-16.8 6.9s-7.2 11.4-7.8 20.5zM1145.5 196.1c-10.1 0-18.2-2.8-24.4-8.3-6.2-5.6-9.3-13.6-9.3-24 0-11.2 3.7-19.6 11-25s18.5-8.9 33.3-10.3c2-.3 4.2-.5 6.6-.8s5-.5 8-.8 5.3-.5 7-.7v-5.7c0-6.6-1.5-11.3-4.5-14.3s-7.6-4.5-13.8-4.5c-8.8 0-19.7 2.5-32.6 7.4-.1-.2-1.2-3.2-3.2-9s-3.2-8.7-3.2-8.9c12.8-5.5 26.6-8.2 41.4-8.2s25.2 3.2 31.8 9.5c6.6 6.3 10 16.6 10 30.8V194h-19.1c-.1-.3-.8-2.5-2.2-6.6s-2.1-6.3-2.1-6.6c-5.4 5.3-10.7 9.1-15.8 11.6-5.3 2.5-11.5 3.7-18.9 3.7zm7-18.3c6 0 11.2-1.4 15.6-4.3s7.6-6.3 9.5-10.4v-20.9c-.2 0-1.9.1-5.2.4s-5 .4-5.3.4c-10.4.9-18.1 2.9-23 5.9s-7.3 7.9-7.3 14.6c0 4.6 1.3 8.1 4 10.6 2.9 2.5 6.7 3.7 11.7 3.7zM1256 196.1c-16 0-28.8-2.7-38.3-8.2l2.7-19.4c4.3 2.4 9.8 4.5 16.6 6.4 6.7 1.9 12.8 2.8 18.3 2.8s10.2-1.1 13.4-3.2 4.8-5.3 4.9-9.4c0-3.8-1.5-6.7-4.5-8.9s-8.7-4.9-17.1-8.1c-2.9-1.1-4.8-1.7-5.6-2.1-10-3.9-17.2-8.2-21.6-13-4.4-4.8-6.6-11.2-6.6-19.4 0-9.9 3.6-17.4 10.7-22.7 7.1-5.3 17.1-7.9 29.8-7.9 13.8 0 25.9 2.6 36.4 7.8l-6.4 17.8c-10.3-4.8-20.1-7.2-29.5-7.2-5.2 0-9.2.9-12.2 2.6-2.9 1.7-4.4 4.4-4.4 7.9 0 3.3 1.4 6 4.2 7.8 2.8 1.9 8.3 4.3 16.6 7.3.3.1 1.1.4 2.6.9 1.4.5 2.6.9 3.3 1.3 9.9 3.6 17.2 7.9 21.9 13 4.7 5 7 11.6 7 19.7-.1 10.8-3.8 19.2-11 25.1-7.4 6.1-17.8 9.1-31.2 9.1zM1361.4 239.7c-4.2 0-8.7-.3-13.4-.8l-1.3-20c3 .3 6.9.5 11.5.5 6 0 10.8-1.2 14.4-3.6 3.6-2.4 6.6-6.6 9-12.6.3-.7 1.6-4.4 3.9-11.1L1342 85.8h27.6l28.5 78.6c2.1-7.8 6.8-22.3 14.2-43.6 7.3-21.2 11.3-32.9 12.1-35h27.6c-30 79.4-45.2 119.4-45.4 120.1-4.7 12.1-10.6 20.9-17.7 26.1-7.2 5.1-16.3 7.7-27.5 7.7zM1503.3 196.1c-16 0-28.7-5.2-37.8-15.6-9.2-10.4-13.8-24.1-13.8-41s4.6-31.3 13.8-41.3c9.2-10.1 22.2-15.1 38.9-15.1s28.8 5.1 38 15.4 13.8 24 13.8 41.1-4.6 31-13.9 41.3c-9.3 10.2-22.3 15.3-39 15.2zm.7-19.6c8.8 0 15.3-3.2 19.7-9.6 4.4-6.4 6.6-15.5 6.6-27.4s-2.2-21.2-6.6-27.5c-4.4-6.3-11-9.5-19.9-9.5s-15.3 3.2-19.8 9.5c-4.4 6.3-6.7 15.5-6.7 27.6s2.2 20.9 6.7 27.3c4.5 6.5 11.2 9.6 20 9.6zM1647.3 185.6c-8.6 7.1-19.9 10.6-34 10.6s-25.4-3.5-34-10.6c-8.6-7-12.9-17.4-12.9-31V85.7h25.9v67.9c0 8.1 1.7 13.9 5.1 17.6 3.4 3.6 8.8 5.4 16.1 5.4s12.5-1.8 15.8-5.4c3.3-3.6 5-9.4 5-17.6V85.7h25.8v68.9c.2 13.6-4.1 23.9-12.8 31zM1723.5 194.1V49.7h26.7v123.1h60.4l-.8 21.3h-86.3zM1819.1 70V47.9h25.9V70h-25.9zm0 124.1V85.8h25.8v108.3h-25.8zM1894.1 194.1 1851 85.7h27.4c1.1 3 4.4 12.1 10 27.6 5.6 15.4 9.3 25.9 11.2 31.5 3.7 10.9 6.4 19.2 8.1 24.8 0-.1.6-2.2 1.7-6.4s2.2-8.2 3.2-11.9c1-3.7 1.7-6 1.9-6.8.1-.1 3.1-9.2 9-27.2s9.5-28.5 10.6-31.5h27.2l-41 108.3h-26.2zM2016 196.1c-17.4 0-31-5-40.7-15-9.7-10-14.5-23.9-14.5-41.6s4.6-30.9 13.7-41.1c9.1-10.2 21.6-15.3 37.4-15.4 14.9 0 26.5 4.7 34.8 14 8.2 9.3 12.4 21.7 12.4 37.2 0 1.1 0 2.9-.1 5.4 0 2.5-.1 4.3-.1 5.5h-72.1c.3 10.1 3 18 8.3 23.5 5.3 5.6 12.6 8.3 21.8 8.3 11.8 0 23.2-3.1 34.1-9.3l3.6 18.3c-10.7 6.9-23.6 10.2-38.6 10.2zm-28.7-67.2h47.3c0-8.8-2-15.6-6-20.3-4-4.7-9.6-7.1-16.7-7.1-6.6 0-12.2 2.3-16.8 6.9-4.5 4.6-7.1 11.4-7.8 20.5z" class="st1"/><path d="M778.8 475.8c-31 0-55.4-9.4-73.3-28.1-17.9-18.8-26.9-44.6-26.9-77.6s9-59.1 26.9-77.7c18-18.6 42.4-27.9 73.4-27.9s55.4 9.3 73.2 28c17.9 18.6 26.8 44.6 26.8 77.8s-9 58.6-26.9 77.4c-18 18.7-42.4 28.1-73.2 28.1zm-45.1-50.5c10.2 13 25.2 19.5 45.2 19.5s35-6.5 45.1-19.4c10.2-13 15.2-31.3 15.2-54.9s-5.1-42.5-15.2-55.7c-10.2-13.2-25.1-19.8-45-19.8s-35 6.6-45.2 19.9c-10.2 13.2-15.4 31.8-15.4 55.6s5.1 41.8 15.3 54.8zM900 472.9V318.7h29.6l4.1 19.5c15.7-15.5 33.2-23.3 52.3-23.3 18 0 31.4 5.2 40.3 15.5 8.9 10.3 13.4 25.3 13.4 45v97.5h-36.9v-93c-.1-12.4-2.1-21.7-6-27.9-3.9-6.2-11-9.3-21.2-9.3-8 0-15.2 2-21.8 6.1-6.6 4.1-11.4 9.2-14.4 15.4-1.8 7.3-2.7 18.5-2.7 33.7v75H900zM1118.4 475c-10.6 0-19.3-1.2-26.3-3.7s-12.5-6.4-16.5-11.9-6.8-11.9-8.4-19.4c-1.6-7.5-2.4-16.8-2.4-27.9V261.9l36.8-2.4v151.9c0 13.8 1.6 23.2 4.9 28.1 3.3 4.9 9.6 7.4 19.1 7.4 4.7 0 10.6-.5 17.8-1.5l1 26.2c-.1 0-1.2.2-3.4.7-2.2.5-4.3.9-6.3 1.2s-4.6.6-7.6 1c-3.2.3-6.1.4-8.7.5zM1151.9 296.2v-31.4h36.9v31.4h-36.9zm0 176.6V318.7h36.8v154.2h-36.8zM1215.5 472.9V318.7h29.6l4.1 19.5c15.7-15.5 33.2-23.3 52.3-23.3 17.9 0 31.4 5.2 40.3 15.5 8.9 10.3 13.4 25.3 13.4 45v97.5h-36.9v-93c-.1-12.4-2.1-21.7-6-27.9s-11-9.3-21.2-9.3c-7.9 0-15.2 2-21.8 6.1-6.6 4.1-11.4 9.2-14.4 15.4-1.8 7.3-2.7 18.5-2.7 33.7v75h-36.7zM1451.2 475.8c-24.8 0-44.1-7.1-57.9-21.4-13.8-14.3-20.7-34-20.7-59.1s6.5-44 19.5-58.5 30.7-21.8 53.2-21.9c21.2 0 37.7 6.6 49.4 19.9s17.6 30.9 17.6 52.9c0 1.6 0 4.2-.1 7.7-.1 3.6-.1 6.2-.1 7.9h-102.5c.4 14.4 4.3 25.6 11.8 33.5 7.5 7.9 17.9 11.9 31.1 11.9 16.8 0 33-4.4 48.5-13.2l5.2 26.1c-15.4 9.4-33.7 14.2-55 14.2zm-40.9-95.7h67.3c0-12.5-2.9-22.2-8.6-28.9-5.7-6.7-13.6-10.1-23.7-10.1-9.4 0-17.4 3.3-23.9 9.8-6.4 6.6-10.1 16.3-11.1 29.2z" class="st2"/><path d="M543.1 231C552.3 118.4 490.8 22 407 15.4c-70.7-5.5-134.1 48-157.9 134.3l170.4 365c0 .1 111.4-136 123.6-283.7z" fill="#60c3ea"/><path d="M117 427.7C23.4 362.3-12.1 252.3 36.9 182.8c41.3-58.6 129.7-70.2 212.2-33l170.4 365S240 513.4 117 427.7z" class="st2"/><path d="M433.2 354.8c-19.7-115.6-184.1-205.1-184.1-205.1s-44.6 123.5 6.3 219.4c55 103.6 164.1 145.6 164.1 145.6s33.4-44.3 13.7-159.9z" fill="#2d95c9"/></svg>