<svg xmlns="http://www.w3.org/2000/svg" preserveAspectRatio="xMinYMin meet" viewBox="0 0 1118.4 1059.7" width="1119" height="1060"><path d="M794.5 0c-36.8 0-72.9 7.1-107.4 21.1-33.6 13.7-65.2 33.7-93.7 59.6-50 45.3-89 106.6-113.8 178.6-56.5-21.3-114.8-32.5-170.5-32.5-53.8 0-103.4 10.1-147.4 29.9-46.4 21-84.2 51.8-112.2 91.5-22 31.3-36.9 66.7-44.2 105.4-7 36.9-6.9 75.9.1 115.9 9.9 56.5 34 114.4 69.7 167.3 18.1 26.8 39.1 52.4 62.6 76.2 24.1 24.4 50.8 46.9 79.5 67 58.3 40.6 127.4 75.3 205.4 103.2 61.9 22.1 129.6 40 201.2 53.1 121.7 22.3 211.8 23.3 215.5 23.3l14.2.1 9-11c2.3-2.9 58.1-71.3 117.5-177.4 34.9-62.4 63.8-124.9 85.9-185.8 27.8-76.7 44.8-151.1 50.6-221.1 2.8-34.6 2.5-69.2-.9-102.9-3.3-32.9-9.6-65.1-18.6-95.8-17.8-60.6-46.8-115.5-83.6-158.7-26.1-30.7-55.9-55.3-88.4-73.2-34.1-18.9-70.6-30-108.3-32.9-7.4-.6-14.8-.9-22.2-.9z" fill="#fff"/><path d="M1086.2 461.9c18.3-225.2-104.5-418-272.3-431.1-141.4-10.9-268.3 95.9-315.8 268.6L839 1029.5s222.8-272.1 247.2-567.6z" fill="#60c3ea"/><path d="M234 855.4C46.8 724.6-24.2 504.6 73.7 365.5c82.6-117.2 259.3-140.4 424.5-66.1L839 1029.5s-359.1-2.7-605-174.1z" fill="#57b0e6"/><path d="M866.5 709.7C827 478.4 498.2 299.5 498.2 299.5s-89.3 247 12.7 438.8c110 207.1 328.1 291.2 328.1 291.2s66.9-88.6 27.5-319.8z" fill="#2d95c9"/></svg>